<svg width="55" height="36" viewBox="0 0 55 36" fill="none" xmlns="http://www.w3.org/2000/svg">
<g clip-path="url(#clip0_831_13976)">
<path d="M0 7.45187C0 6.81737 0.334695 6.22972 0.880929 5.90518L8.09406 1.61945C9.29608 0.905261 10.8197 1.76987 10.8197 3.16618V32.8339C10.8197 34.2302 9.29608 35.0947 8.09406 34.3805L0.880933 30.0948C0.334695 29.7703 0 29.1826 0 28.5481V7.45187Z" fill="#C61F1F"/>
<path d="M15.3279 7.62471C15.3279 6.89999 15.7633 6.24596 16.4326 5.96525L28.1539 1.04927C29.3424 0.550833 30.6557 1.422 30.6557 2.70874V33.2913C30.6557 34.578 29.3424 35.4492 28.1539 34.9507L16.4326 30.0348C15.7633 29.754 15.3279 29.1 15.3279 28.3753V7.62471Z" fill="#C61F1F"/>
<path d="M35.1639 7.73667C35.1639 6.95668 35.6672 6.26548 36.4104 6.02464L52.64 0.764886C53.8049 0.38731 55 1.25422 55 2.47691V33.5231C55 34.7458 53.8049 35.6127 52.64 35.2351L36.4104 29.9754C35.6672 29.7345 35.1639 29.0433 35.1639 28.2633V7.73667Z" fill="#C61F1F"/>
</g>
<defs>
<clipPath id="clip0_831_13976">
<rect width="55" height="36" fill="white"/>
</clipPath>
</defs>
</svg>
